<svg xmlns="http://www.w3.org/2000/svg" viewBox="0 0 640 1050" width="640" height="1050" role="img" aria-labelledby="title desc">
  <title id="title">Rota e gatilhos dos três Agitator Majini</title>
  <desc id="desc">Fluxo vertical de Desperate Escape: cinco grupos e Assist Jump no primeiro alvo, duas rocket turrets no segundo e bosses do elevador antes do fim do cronômetro no terceiro.</desc>
  <rect width="640" height="1050" rx="24" fill="#0f172a"/>
  <rect x="20" y="20" width="600" height="100" rx="16" fill="#172033" stroke="#5eead4" stroke-width="2"/>
  <text x="44" y="58" fill="#f8fafc" font-family="Arial, sans-serif" font-size="25" font-weight="700">Desperate Escape — 3 Agitator Majini</text>
  <text x="44" y="88" fill="#cbd5e1" font-family="Arial, sans-serif" font-size="17">As três cutscenes e kills precisam ocorrer na mesma run</text>
  <text x="320" y="146" fill="#fbbf24" font-family="Arial, sans-serif" font-size="16" text-anchor="middle">Diagrama esquemático — não representa escala.</text>
  <path d="M64 190 V982" fill="none" stroke="#475569" stroke-width="5" stroke-dasharray="12 10"/>

  <rect x="36" y="174" width="568" height="296" rx="18" fill="#122a2d" stroke="#5eead4" stroke-width="2"/>
  <circle cx="64" cy="216" r="25" fill="#0f766e" stroke="#99f6e4" stroke-width="2"/>
  <text x="64" y="224" fill="#fff" font-family="Arial, sans-serif" font-size="20" font-weight="700" text-anchor="middle">1</text>
  <text x="104" y="216" fill="#ecfeff" font-family="Arial, sans-serif" font-size="22" font-weight="700">Transportation Area 1</text>
  <g font-family="Arial, sans-serif">
    <rect x="104" y="246" width="84" height="42" rx="10" fill="#134e4a"/><text x="146" y="273" fill="#fff" font-size="16" font-weight="700" text-anchor="middle">Grupo 1</text>
    <rect x="202" y="246" width="84" height="42" rx="10" fill="#134e4a"/><text x="244" y="273" fill="#fff" font-size="16" font-weight="700" text-anchor="middle">Grupo 2</text>
    <rect x="300" y="246" width="84" height="42" rx="10" fill="#134e4a"/><text x="342" y="273" fill="#fff" font-size="16" font-weight="700" text-anchor="middle">Grupo 3</text>
    <text x="398" y="273" fill="#94a3b8" font-size="24">→</text>
    <rect x="432" y="246" width="136" height="42" rx="10" fill="#78350f" stroke="#fbbf24" stroke-width="2"/><text x="500" y="273" fill="#fef3c7" font-size="16" font-weight="700" text-anchor="middle">Só então: KEY</text>
    <rect x="104" y="306" width="84" height="42" rx="10" fill="#134e4a"/><text x="146" y="333" fill="#fff" font-size="16" font-weight="700" text-anchor="middle">Grupo 4</text>
    <rect x="202" y="306" width="84" height="42" rx="10" fill="#134e4a"/><text x="244" y="333" fill="#fff" font-size="16" font-weight="700" text-anchor="middle">Grupo 5</text>
    <text x="300" y="333" fill="#94a3b8" font-size="24">→</text>
    <rect x="334" y="306" width="234" height="42" rx="10" fill="#164e63"/><text x="451" y="333" fill="#cffafe" font-size="16" font-weight="700" text-anchor="middle">Use key + Assist Jump</text>
    <rect x="104" y="368" width="464" height="48" rx="12" fill="#3f1d45" stroke="#e879f9" stroke-width="2"/>
    <text x="336" y="398" fill="#fae8ff" font-size="18" font-weight="700" text-anchor="middle">CUTSCENE → volte pelo portão → mate o Agitator</text>
    <text x="104" y="445" fill="#fde68a" font-size="16">Falhou a cutscene? Reinicie a DLC; não avance para a área 2.</text>
  </g>

  <rect x="36" y="492" width="568" height="220" rx="18" fill="#13243d" stroke="#60a5fa" stroke-width="2"/>
  <circle cx="64" cy="534" r="25" fill="#1d4ed8" stroke="#bfdbfe" stroke-width="2"/>
  <text x="64" y="542" fill="#fff" font-family="Arial, sans-serif" font-size="20" font-weight="700" text-anchor="middle">2</text>
  <text x="104" y="534" fill="#eff6ff" font-family="Arial, sans-serif" font-size="22" font-weight="700">Communication Facility</text>
  <g font-family="Arial, sans-serif">
    <rect x="104" y="568" width="130" height="54" rx="12" fill="#1e3a8a"/><text x="169" y="590" fill="#dbeafe" font-size="16" font-weight="700" text-anchor="middle">Rocket turret A</text><text x="169" y="611" fill="#bfdbfe" font-size="14" text-anchor="middle">fique nela</text>
    <rect x="250" y="568" width="130" height="54" rx="12" fill="#1e3a8a"/><text x="315" y="590" fill="#dbeafe" font-size="16" font-weight="700" text-anchor="middle">Rocket turret B</text><text x="315" y="611" fill="#bfdbfe" font-size="14" text-anchor="middle">IA/coop</text>
    <text x="394" y="602" fill="#94a3b8" font-size="24">→</text>
    <rect x="430" y="568" width="138" height="54" rx="12" fill="#3f1d45"/><text x="499" y="590" fill="#fae8ff" font-size="15" font-weight="700" text-anchor="middle">2 duplas + cena</text><text x="499" y="611" fill="#f5d0fe" font-size="14" text-anchor="middle">rocket no grupo</text>
    <text x="104" y="660" fill="#fde68a" font-size="16">Não atravesse a porta norte antes de confirmar a kill.</text>
  </g>

  <rect x="36" y="734" width="568" height="276" rx="18" fill="#321c24" stroke="#fb7185" stroke-width="2"/>
  <circle cx="64" cy="776" r="25" fill="#be123c" stroke="#fecdd3" stroke-width="2"/>
  <text x="64" y="784" fill="#fff" font-family="Arial, sans-serif" font-size="20" font-weight="700" text-anchor="middle">3</text>
  <text x="104" y="776" fill="#fff1f2" font-family="Arial, sans-serif" font-size="22" font-weight="700">Landing Pad — 5:00</text>
  <g font-family="Arial, sans-serif">
    <rect x="104" y="812" width="464" height="54" rx="12" fill="#4c1d2b"/>
    <text x="336" y="835" fill="#ffe4e6" font-size="17" font-weight="700" text-anchor="middle">Elevador → concentre cada boss → próxima saída</text>
    <text x="336" y="857" fill="#fecdd3" font-size="15" text-anchor="middle">Gatilho usual após 4 kills; algumas rotas mostram após 3</text>
    <rect x="104" y="886" width="214" height="56" rx="12" fill="#7f1d1d"/><text x="211" y="910" fill="#fee2e2" font-size="16" font-weight="700" text-anchor="middle">CUTSCENE + 2 Big Man</text><text x="211" y="932" fill="#fecaca" font-size="14" text-anchor="middle">Agitator saiu</text>
    <text x="332" y="920" fill="#94a3b8" font-size="24">→</text>
    <rect x="366" y="886" width="202" height="56" rx="12" fill="#78350f" stroke="#fbbf24" stroke-width="2"/><text x="467" y="910" fill="#fef3c7" font-size="16" font-weight="700" text-anchor="middle">Mate antes de 0:00</text><text x="467" y="932" fill="#fde68a" font-size="14" text-anchor="middle">flash se virar Cephalo</text>
    <text x="104" y="978" fill="#fecdd3" font-size="16">O timer zerou com ele vivo? Nova run completa.</text>
  </g>
</svg>
